<svg width="160" height="160" viewBox="0 0 160 160" xmlns="http://www.w3.org/2000/svg" role="img" aria-labelledby="title desc">
  <title id="title">Tarteel Admin Logo</title>
  <desc id="desc">Geometric emblem inspired by Islamic patterns with the letter T at the center.</desc>
  <defs>
    <linearGradient id="g1" x1="0" y1="0" x2="1" y2="1">
      <stop offset="0" stop-color="#059669" />
      <stop offset="1" stop-color="#16a34a" />
    </linearGradient>
    <linearGradient id="g2" x1="0" y1="1" x2="1" y2="0">
      <stop offset="0" stop-color="#facc15" />
      <stop offset="1" stop-color="#f97316" />
    </linearGradient>
  </defs>
  <rect x="8" y="8" width="144" height="144" rx="32" fill="#ecfdf5" />
  <rect x="20" y="20" width="120" height="120" rx="28" fill="url(#g1)" />

  <path
    d="M80 30 L118 52 L118 108 L80 130 L42 108 L42 52 Z"
    fill="none"
    stroke="url(#g2)"
    stroke-width="4"
    stroke-linejoin="round"
  />

  <circle cx="80" cy="80" r="28" fill="white" fill-opacity="0.1" stroke="#bbf7d0" stroke-width="2" />

  <path
    d="M60 56 H104 C107 56 110 58.5 110 62 C110 65.5 107 68 104 68 H92 V106 C92 110 89 112 84 112 H76 C71 112 68 110 68 106 V68 H60 C57 68 54 65.5 54 62 C54 58.5 57 56 60 56 Z"
    fill="white"
  />

  <circle cx="80" cy="40" r="4" fill="#bbf7d0" />
  <circle cx="120" cy="80" r="4" fill="#facc15" />
  <circle cx="40" cy="80" r="4" fill="#f97316" />
</svg>

